# AST/ASF file generated using VICON BodyLanguage
# -----------------------------------------------
:version 1.10
:name VICON
:units
  mass 1.0
  length 0.45
  angle deg
:documentation
   .ast/.asf automatically generated from VICON data using
   VICON BodyBuilder and BodyLanguage model FoxedUp or BRILLIANT.MOD
:root
   order TX TY TZ RX RY RZ
   axis XYZ
   position 0 0 0  
   orientation 0 0 0 
:bonedata
  begin
     id 1 
     name lhipjoint
     direction 0.576517 -0.752066 0.319413 
     length 2.45433 
     axis 0 0 0  XYZ
  end
  begin
     id 2 
     name lfemur
     direction 0.34202 -0.939693 0  
     length 7.54459  
     axis 0 0 20  XYZ
    dof rx ry rz
    limits (-160.0 20.0)
           (-70.0 70.0)
           (-60.0 70.0)
  end
  begin
     id 3 
     name ltibia
     direction 0.34202 -0.939693 0   
     length 7.73986   
     axis 0 0 20   XYZ
    dof rx
    limits (-10.0 170.0)
  end
  begin
     id 4 
     name lfoot
     direction 0.090693 -0.249177 0.964202   
     length 2.28437   
     axis -90 7.62852e-016 20   XYZ
    dof rx rz
    limits (-45.0 90.0)
           (-70.0 20.0)
  end
  begin
     id 5 
     name ltoes
     direction 1.5356e-011 -4.21928e-011 1   
     length 1.14243   
     axis -90 7.62852e-016 20   XYZ
    dof rx
    limits (-90.0 20.0)
  end
  begin
     id 6 
     name rhipjoint
     direction -0.573937 -0.753736 0.320122   
     length 2.44889  
     axis 0 0 0  XYZ 
  end
  begin
     id 7 
     name rfemur
     direction -0.34202 -0.939693 0   
     length 7.50166   
     axis 0 0 -20   XYZ
    dof rx ry rz
    limits (-160.0 20.0)
           (-70.0 70.0)
           (-70.0 60.0)
  end
  begin
     id 8 
     name rtibia
     direction -0.34202 -0.939693 0   
     length 7.54266   
     axis 0 0 -20   XYZ
    dof rx
    limits (-10.0 170.0)
 end
 begin
     id 9 
     name rfoot
     direction -0.114017 -0.31326 0.942798   
     length 2.34212  
     axis -90 -7.62852e-016 -20   XYZ
    dof rx rz
    limits (-45.0 90.0)
           (-20.0 70.0)
  end
  begin
     id 10 
     name rtoes
     direction -1.53557e-011 -4.21867e-011 1   
     length 1.16246   
     axis -90 -7.62852e-016 -20   XYZ
    dof rx
    limits (-90.0 20.0)
  end
  begin
     id 11 
     name lowerback
     direction -0.0228371 0.999155 -0.034167   
     length 2.0537   
     axis 0 0 0   XYZ
    dof rx ry rz
    limits (-20.0 45.0)
           (-30.0 30.0)
           (-30.0 30.0)
  end
  begin
     id 12 
     name upperback
     direction 0.0198981 0.999794 0.00389455   
     length 2.05302   
     axis 0 0 0   XYZ
    dof rx ry rz
    limits (-20.0 45.0)
           (-30.0 30.0)
           (-30.0 30.0)
  end
  begin
     id 13 
     name thorax
     direction 0.0304566 0.99935 0.0192987   
     length 2.05315   
     axis 0 0 0   XYZ
    dof rx ry rz
    limits (-20.0 45.0)
           (-30.0 30.0)
           (-30.0 30.0)
  end
  begin
     id 14 
     name lowerneck
     direction -0.0196762 0.99417 0.106017   
     length 1.82056   
     axis 0 0 0   XYZ
    dof rx ry rz
    limits (-20.0 45.0)
           (-30.0 30.0)
           (-30.0 30.0)
  end
  begin
     id 15 
     name upperneck
     direction 0.00517787 0.9802 -0.197944   
     length 1.83835   
     axis 0 0 0   XYZ
    dof rx ry rz
    limits (-20.0 45.0)
           (-30.0 30.0)
           (-30.0 30.0)
  end
  begin
     id 16
     name head
     direction 0.00211419 0.996945 -0.078081  
     length 1.85629  
     axis 0 0 0   XYZ
    dof rx ry rz
    limits (-20.0 45.0)
           (-30.0 30.0)
           (-30.0 30.0)
  end
  begin
     id 17 
     name lclavicle
     direction 0.930001 0.365811 -0.0357824  
     length 3.81961  
     axis 0 0 0   XYZ
    dof ry rz
    limits (-20.0 10.0)
           (0.0 20.0)
  end
  begin
     id 18 
     name lhumerus
     direction 1 -4.48968e-011 -3.06644e-027   
     length 5.14507   
     axis 180 -30 -90   XYZ
    dof rx ry rz
    limits (-60.0 90.0)
           (-90.0 90.0)
           (-90.0 90.0)
  end
  begin
     id 19
     name lradius
     direction 1 -4.48965e-011 9.06925e-028   
     length 3.50646   
     axis 180 -30 -90   XYZ
    dof rx
    limits (-10.0 170.0)
  end
  begin
     id 20
     name lwrist
     direction 1 -4.48957e-011 1.03922e-027   
     length 1.75323   
     axis -2.56395e-016 90 90   XYZ
    dof ry
    limits (-180.0 0.0)
 end
  begin
     id 21 
     name lhand
     direction 1 -4.48967e-011 2.08017e-027   
     length 0.629969   
     axis -1.32723e-015 90 90   XYZ
    dof rx rz
    limits (-90.0 90.0)
           (-45.0 45.0)
  end
  begin
     id 22 
     name lfingers
     direction 1 -4.49089e-011 4.20095e-027   
     length 0.507897   
     axis -2.6545e-015 90 90   XYZ
    dof rx
    limits (0.0 90.0)
  end
  begin
     id 23
     name lthumb
     direction 0.707107 -6.35001e-011 0.707107   
     length 0.729241   
     axis -90 45 5.05613e-014   XYZ
    dof rx rz
    limits (-45.0 45.0)
           (-45.0 45.0)
  end
  begin
     id 24 
     name rclavicle
     direction -0.881882 0.464123 -0.0829113   
     length 3.47515  
     axis 0 0 0   XYZ 
    dof ry rz
    limits (-10.0 20.0)
           (-20.0 0.0)
  end
  begin
     id 25 
     name rhumerus
     direction -1 -4.48961e-011 -1.55672e-027  
     length 5.232   
     axis 180 30 90   XYZ
    dof rx ry rz
    limits (-90.0 60.0)
           (-90.0 90.0)
           (-90.0 90.0)
  end
  begin
     id 26 
     name rradius
     direction -1 -4.48963e-011 6.18178e-029   
     length 3.65641   
     axis 180 30 90   XYZ
    dof rx
    limits (-10.0 170.0)
  end
  begin
     id 27 
     name rwrist
     direction -1 -4.48982e-011 1.04136e-027   
     length 1.8282   
     axis -2.56395e-016 -90 -90   XYZ
    dof ry
    limits (-180.0 0.0)
  end
  begin
     id 28
     name rhand
     direction -1 -4.48929e-011 2.07378e-027   
     length 0.656807   
     axis -1.32723e-015 -90 -90   XYZ
    dof rx rz
    limits (-90.0 90.0)
           (-45.0 45.0)
  end
  begin
     id 29
     name rfingers
     direction -1 -4.489e-011 4.13816e-027   
     length 0.529535   
     axis -2.6545e-015 -90 -90   XYZ
    dof rx
    limits (0.0 90.0)
  end
  begin
     id 30
     name rthumb
     direction -0.707107 -6.34843e-011 0.707107   
     length 0.760309   
     axis -90 -45 -5.05613e-014   XYZ
    dof rx rz
    limits (-45.0 45.0)
           (-45.0 45.0)
  end
:hierarchy
  begin
    root lhipjoint rhipjoint lowerback
    lhipjoint lfemur
    lfemur ltibia
    ltibia lfoot
    lfoot ltoes
    rhipjoint rfemur
    rfemur rtibia
    rtibia rfoot
    rfoot rtoes
    lowerback upperback
    upperback thorax
    thorax lowerneck lclavicle rclavicle
    lowerneck upperneck
    upperneck head
    lclavicle lhumerus
    lhumerus lradius
    lradius lwrist
    lwrist lhand lthumb
    lhand lfingers
    rclavicle rhumerus
    rhumerus rradius
    rradius rwrist
    rwrist rhand rthumb
    rhand rfingers
  end

#!OML:ASF H:\ManfredETheater\Project 1\Capture day 1\Session 1\subject.ASF
:FULLY-SPECIFIED
:DEGREES
46
root -2.13834 15.5615 36.9412 -157.896 -1.34595 -179.08
lowerback 12.3378 2.57078 2.03164
upperback -0.401754 3.64826 -0.301835
thorax -7.20206 1.67673 -2.1256
lowerneck -16.4739 -4.43809 -4.66467
upperneck 7.98606 -5.29949 2.87495
head 5.2692 -2.54374 1.15777
rclavicle 4.19436e-014 7.95139e-016
rhumerus -41.7717 19.7395 -98.64
rradius 104.422
rwrist 2.42299
rhand -21.8933 1.06508
rfingers 7.12502
rthumb 4.51177 -28.8669
lclavicle 4.19436e-014 7.95139e-016
lhumerus -74.6677 -7.24041 91.3317
lradius 101.308
lwrist 11.617
lhand -21.7772 -11.917
lfingers 7.12502
lthumb 4.62392 18.0126
rfemur 3.20293 1.28317 23.246
rtibia 35.3654
rfoot 26.7291 -2.42214
rtoes -28.6319
lfemur -67.6516 3.98128 -25.1132
ltibia 65.7792
lfoot -20.4836 -8.74113
ltoes 4.45322
47
root -2.11559 15.5748 36.6052 -157.988 -1.77153 -179.585
lowerback 12.7738 2.28801 1.48333
upperback -0.319303 3.17684 -0.497934
thorax -7.40046 1.45764 -1.95992
lowerneck -16.6542 -4.41071 -4.59508
upperneck 7.78436 -5.29794 3.10586
head 5.23931 -2.52496 1.21791
rclavicle -5.36719e-015 3.97569e-015
rhumerus -42.3764 19.4303 -98.785
rradius 102.973
rwrist 2.2965
rhand -21.5594 0.759359
rfingers 7.12502
rthumb 4.83419 -29.1655
lclavicle -5.36719e-015 3.97569e-015
lhumerus -72.759 -7.61459 91.7475
lradius 100.084
lwrist 11.855
lhand -21.922 -12.0704
lfingers 7.12502
lthumb 4.48411 17.8622
rfemur 0.388814 0.593529 22.8307
rtibia 41.2315
rfoot 26.2267 -2.92011
rtoes -25.879
lfemur -66.3863 3.51318 -25.3287
ltibia 66.21
lfoot -21.3683 -8.42321
ltoes 5.37093
48
root -2.09295 15.587 36.2732 -158.127 -2.15415 -180.199
lowerback 13.2667 2.02058 0.822128
upperback -0.184036 2.69623 -0.698896
thorax -7.57394 1.23736 -1.72845
lowerneck -16.7979 -4.37114 -4.50164
upperneck 7.47706 -5.27858 3.25891
head 5.16667 -2.50458 1.25304
rclavicle 2.62396e-014 -1.39149e-015
rhumerus -42.9618 18.9356 -98.8543
rradius 101.27
rwrist 1.95043
rhand -21.1951 0.440358
rfingers 7.12502
rthumb 5.18595 -29.4762
lclavicle 2.62396e-014 -1.39149e-015
lhumerus -70.5983 -8.1469 92.271
lradius 98.8122
lwrist 12.0778
lhand -22.2206 -12.3029
lfingers 7.12502
lthumb 4.19578 17.6355
rfemur -2.50524 -0.287782 22.2578
rtibia 47.2449
rfoot 24.7342 -3.70025
rtoes -23.4617
lfemur -64.9661 3.00913 -25.639
ltibia 66.4966
lfoot -22.2638 -8.18431
ltoes 6.3382
49
root -2.07067 15.5998 35.9435 -158.299 -2.47862 -180.948
lowerback 13.8007 1.77757 0.0148305
upperback -0.0199321 2.21015 -0.913109
thorax -7.73704 1.01823 -1.4213
lowerneck -16.8625 -4.31404 -4.37053
upperneck 7.08016 -5.2377 3.32415
head 5.0489 -2.48138 1.25883
rclavicle 9.14409e-015 1.13307e-014
rhumerus -43.5453 18.21 -98.8383
rradius 99.318
rwrist 1.44561
rhand -20.7974 0.0502897
rfingers 7.12502
rthumb 5.56993 -29.8565
lclavicle 9.14409e-015 1.13307e-014
lhumerus -68.249 -8.83959 92.8823
lradius 97.5152
lwrist 12.2853
lhand -22.6268 -12.5742
lfingers 7.12502
lthumb 3.80348 17.3717
rfemur -5.48213 -1.3121 21.4937
rtibia 53.3216
rfoot 22.4034 -4.74113
rtoes -21.529
lfemur -63.3887 2.47147 -26.0821
ltibia 66.6239
lfoot -23.1831 -7.99558
ltoes 7.33599
50
root -2.04969 15.6133 35.6155 -158.49 -2.75778 -181.8
lowerback 14.3589 1.55464 -0.887677
upperback 0.164061 1.71802 -1.13892
thorax -7.88494 0.797674 -1.06442
lowerneck -16.8794 -4.24039 -4.19948
upperneck 6.63878 -5.17767 3.31159
head 4.90583 -2.45504 1.23689
rclavicle 1.89839e-014 3.77691e-015
rhumerus -44.1062 17.2402 -98.7194
rradius 97.1167
rwrist 0.772839
rhand -20.4461 -0.359244
rfingers 7.12502
rthumb 5.90915 -30.2568
lclavicle 1.89839e-014 3.77691e-015
lhumerus -65.7296 -9.68532 93.5429
lradius 96.21
lwrist 12.4867
lhand -23.0779 -12.868
lfingers 7.12502
lthumb 3.36789 17.0851
rfemur -8.54802 -2.45418 20.563
rtibia 59.3919
rfoot 19.4567 -5.93593
rtoes -20.1793
lfemur -61.6718 1.90705 -26.6337
ltibia 66.5904
lfoot -24.145 -7.792
ltoes 8.09518
51
root -2.03019 15.6282 35.2881 -158.676 -3.0185 -182.731
lowerback 14.9124 1.33809 -1.84965
upperback 0.345691 1.2079 -1.36952
thorax -8.02217 0.569 -0.667991
lowerneck -16.8447 -4.14403 -3.99654
upperneck 6.18815 -5.0911 3.24314
head 4.74879 -2.41993 1.19587
rclavicle 1.5207e-014 -4.47266e-015
rhumerus -44.6556 16.054 -98.4943
rradius 94.655
rwrist -0.0195745
rhand -20.2596 -0.744675
rfingers 7.12502
rthumb 6.0892 -30.6372
lclavicle 1.5207e-014 -4.47266e-015
lhumerus -63.0832 -10.6559 94.218
lradius 94.9266
lwrist 12.6964
lhand -23.5162 -13.1587
lfingers 7.12502
lthumb 2.9446 16.8007
rfemur -11.7255 -3.69502 19.5002
rtibia 65.3961
rfoot 16.1314 -7.1145
rtoes -19.5489
lfemur -59.8562 1.31869 -27.274
ltibia 66.4069
lfoot -25.1401 -7.56911
ltoes 8.82844
52
root -2.01292 15.6433 34.9617 -158.846 -3.2531 -183.706
lowerback 15.4476 1.12661 -2.82954
upperback 0.521855 0.685406 -1.60538
thorax -8.14182 0.333423 -0.257342
lowerneck -16.8176 -4.02932 -3.77064
upperneck 5.78104 -4.98351 3.15135
head 4.60524 -2.37552 1.14531
rclavicle -1.08338e-014 1.98785e-015
rhumerus -45.1704 14.6638 -98.1267
rradius 91.9729
rwrist -0.777835
rhand -20.2133 -1.20044
rfingers 7.12502
rthumb 6.13393 -31.0916
lclavicle -1.08338e-014 1.98785e-015
lhumerus -60.3137 -11.7304 94.8592
lradius 93.6901
lwrist 12.9193
lhand -23.9141 -13.4756
lfingers 7.12502
lthumb 2.56027 16.4887
rfemur -15.0282 -4.98805 18.3366
rtibia 71.2879
rfoot 12.674 -8.10522
rtoes -19.3446
lfemur -57.9793 0.738811 -27.9808
ltibia 66.1018
lfoot -26.1436 -7.36149
ltoes 9.61174
